{"title":"Fubar 2  The Wall (2010) Xvid {1337x}-X.avi","uid":6332928,"size":741234688,"categoryP":"video","categoryS":"movies","magnet":"?xt=urn:btih:60599f0fe3a1005e0946b8139a2aacd8262cce66&amp;dn=Fubar+2++The+Wall+%282010%29+Xvid+%7B1337x%7D-X.avi&amp;tr=udp%3A%2F%2Ftracker.openbittorrent.com%3A80&amp;tr=udp%3A%2F%2Fopen.demonii.com%3A1337&amp;tr=udp%3A%2F%2Ftracker.coppersurfer.tk%3A6969&amp;tr=udp%3A%2F%2Fexodus.desync.com%3A6969","seeders":0,"leechers":1,"uploader":"hiest","files":-1,"time":1303356936,"description":" ##     ## ##     ##  ######  ########    ###    ##    ##  ######   ##     ## \n ###   ### ##     ## ##    ##    ##      ## ##   ###   ## ##    ##   ##   ##  \n #### #### ##     ## ##          ##     ##   ##  ####  ## ##          ## ##   \n ## ### ## ##     ##  ######     ##    ##     ## ## ## ## ##   ####    ###    \n ##     ## ##     ##       ##    ##    ######### ##  #### ##    ##    ## ##   \n ##     ## ##     ## ##    ##    ##    ##     ## ##   ### ##    ##   ##   ##  \n ##     ##  #######   ######     ##    ##     ## ##    ##  ######   ##     ##  \n\n Video\n ID : 0\n Format : MPEG-4 Visual\n Format profile : Advanced Simple@L5\n Format settings, BVOP : Yes\n Format settings, QPel : No\n Format settings, GMC : No warppoints\n Format settings, Matrix : Default (H.263)\n Muxing mode : Packed bitstream\n Codec ID : XVID\n Codec ID/Hint : XviD\n Duration : 1h 25mn\n Bit rate : 1 045 Kbps\n Width : 688 pixels\n Height : 368 pixels\n Display aspect ratio : 1.870\n Frame rate : 23.976 fps\n Color space : YUV\n Chroma subsampling : 4:2:0\n Bit depth : 8 bits\n Scan type : Progressive\n Bits/(Pixel*Frame) : 0.172\n Stream size : 638 MiB (90%)\n Writing library : XviD 57\n\n Audio\n ID : 1\n Format : MPEG Audio\n Format version : Version 1\n Format profile : Layer 3\n Mode : Joint stereo\n Mode extension : MS Stereo\n Codec ID : 55\n Codec ID/Hint : MP3\n Duration : 1h 25mn\n Bit rate mode : Variable\n Bit rate : 101 Kbps\n Nominal bit rate : 112 Kbps\n Channel(s) : 2 channels\n Sampling rate : 48.0 KHz\n Stream size : 61.4 MiB (9%)\n Alignment : Aligned on interleaves\n Interleave, duration : 24 ms (0.58 video frame)\n Interleave, preload duration : 183 ms\n Writing library : LAME3.97 \n Encoding settings : -m j -V 4 -q 2 -lowpass 16 --abr 112\n\n\n Trailer\n\n\n IMDB\n &lt;a href=&quot; http://www.imdb.com/title/tt1555747/&quot; rel=&quot;nofollow&quot; target=&quot;_NEW&quot;&gt; http://www.imdb.com/title/tt1555747/&lt;/a&gt;\n\n\n Shout out to noir and all my friends @ 1337x.org and extratorrent. Happy 420\n\n\n Plot:\n\n Beer swilling, pot smoking, hard rock loving Canadian losers Dean and Terry find themselves forced to work for a living in hardscrabble Fort McMurray, Alberta. While there Terry finds love, and Dean finds himself adrift. You'll find countless jokes about how clueless and crass these two really are. If you love your comedy outrageous and stupid, but give yourself credit for some intelligence, you'll find this hilarious\n\n\n\n\n\n\n ==================================   \n &lt;a href=&quot; http://thepiratebay.se/user/hiest&quot; rel=&quot;nofollow&quot; target=&quot;_NEW&quot;&gt; http://thepiratebay.se/user/hiest&lt;/a&gt;\n ==================================\n\n\n\n\n\n\n Screens:\n\n &lt;a href=&quot; http://leetleech.org/images/65210186469536183567.jpg&quot; rel=&quot;nofollow&quot; target=&quot;_NEW&quot;&gt; http://leetleech.org/images/65210186469536183567.jpg&lt;/a&gt;\n\n ##     ## ##     ##  ######  ########    ###    ##    ##  ######   ##     ## \n ###   ### ##     ## ##    ##    ##      ## ##   ###   ## ##    ##   ##   ##  \n #### #### ##     ## ##          ##     ##   ##  ####  ## ##          ## ##   \n ## ### ## ##     ##  ######     ##    ##     ## ## ## ## ##   ####    ###    \n ##     ## ##     ##       ##    ##    ######### ##  #### ##    ##    ## ##   \n ##     ## ##     ## ##    ##    ##    ##     ## ##   ### ##    ##   ##   ##  \n ##     ##  #######   ######     ##    ##     ## ##    ##  ######   ##     ##  \n","torrent":{"xt":"urn:btih:60599f0fe3a1005e0946b8139a2aacd8262cce66","amp;dn":"Fubar+2++The+Wall+%282010%29+Xvid+%7B1337x%7D-X.avi","amp;tr":["udp%3A%2F%2Ftracker.openbittorrent.com%3A80","udp%3A%2F%2Fopen.demonii.com%3A1337","udp%3A%2F%2Ftracker.coppersurfer.tk%3A6969","udp%3A%2F%2Fexodus.desync.com%3A6969"],"infoHash":"60599f0fe3a1005e0946b8139a2aacd8262cce66","infoHashBuffer":{"type":"Buffer","data":[96,89,159,15,227,161,0,94,9,70,184,19,154,42,172,216,38,44,206,102]},"announce":[],"urlList":[]}}